<svg xmlns="http://www.w3.org/2000/svg" width="375" viewBox="0 0 375 112.5" height="112.5" version="1.0"><defs><clipPath id="a"><path d="M 269 7 L 275.347656 7 L 275.347656 14 L 269 14 Z M 269 7"/></clipPath></defs><g><g><g><path d="M 38.078125 -47.671875 C 38.078125 -43.960938 37.160156 -40.585938 35.328125 -37.546875 C 33.492188 -34.503906 31.046875 -31.960938 27.984375 -29.921875 C 29.597656 -29.597656 30.992188 -29.046875 32.171875 -28.265625 C 33.359375 -27.484375 34.34375 -26.53125 35.125 -25.40625 C 35.90625 -24.28125 36.492188 -23.003906 36.890625 -21.578125 C 37.296875 -20.148438 37.5 -18.65625 37.5 -17.09375 C 37.5 -14.03125 36.785156 -11.351562 35.359375 -9.0625 C 33.941406 -6.78125 32.101562 -4.898438 29.84375 -3.421875 C 27.582031 -1.941406 25.066406 -0.835938 22.296875 -0.109375 C 19.523438 0.609375 16.769531 0.96875 14.03125 0.96875 C 12.53125 0.96875 11.023438 0.859375 9.515625 0.640625 C 8.015625 0.429688 6.59375 0.0546875 5.25 -0.484375 C 4.757812 -0.640625 4.351562 -1.296875 4.03125 -2.453125 C 3.707031 -3.609375 3.453125 -5.019531 3.265625 -6.6875 C 3.078125 -8.351562 2.925781 -10.15625 2.8125 -12.09375 C 2.707031 -14.03125 2.628906 -15.882812 2.578125 -17.65625 C 2.523438 -19.4375 2.5 -21 2.5 -22.34375 C 2.5 -23.6875 2.5 -24.628906 2.5 -25.171875 C 2.5 -27.046875 2.5 -28.9375 2.5 -30.84375 C 2.5 -32.757812 2.550781 -34.65625 2.65625 -36.53125 C 2.65625 -37.019531 2.671875 -37.773438 2.703125 -38.796875 C 2.734375 -39.816406 2.757812 -40.957031 2.78125 -42.21875 C 2.8125 -43.488281 2.863281 -44.820312 2.9375 -46.21875 C 3.019531 -47.613281 3.128906 -48.914062 3.265625 -50.125 C 3.398438 -51.332031 3.585938 -52.367188 3.828125 -53.234375 C 4.066406 -54.097656 4.347656 -54.632812 4.671875 -54.84375 C 5.910156 -55.65625 7.28125 -56.421875 8.78125 -57.140625 C 10.289062 -57.867188 11.851562 -58.5 13.46875 -59.03125 C 15.082031 -59.570312 16.695312 -60.003906 18.3125 -60.328125 C 19.925781 -60.648438 21.457031 -60.8125 22.90625 -60.8125 C 24.894531 -60.8125 26.816406 -60.53125 28.671875 -59.96875 C 30.523438 -59.40625 32.132812 -58.554688 33.5 -57.421875 C 34.875 -56.296875 35.976562 -54.910156 36.8125 -53.265625 C 37.65625 -51.628906 38.078125 -49.765625 38.078125 -47.671875 Z M 24.6875 -43.390625 C 24.6875 -44.304688 24.398438 -44.976562 23.828125 -45.40625 C 23.265625 -45.84375 22.523438 -46.0625 21.609375 -46.0625 C 20.859375 -46.0625 20.066406 -45.898438 19.234375 -45.578125 C 18.398438 -45.253906 17.6875 -44.820312 17.09375 -44.28125 C 16.9375 -44.125 16.789062 -43.664062 16.65625 -42.90625 C 16.519531 -42.15625 16.410156 -41.304688 16.328125 -40.359375 C 16.253906 -39.421875 16.203125 -38.535156 16.171875 -37.703125 C 16.140625 -36.867188 16.125 -36.316406 16.125 -36.046875 C 16.125 -35.941406 16.125 -35.769531 16.125 -35.53125 C 16.125 -35.289062 16.140625 -35.035156 16.171875 -34.765625 C 16.203125 -34.492188 16.242188 -34.25 16.296875 -34.03125 C 16.347656 -33.820312 16.425781 -33.71875 16.53125 -33.71875 C 17.445312 -33.71875 18.390625 -34.050781 19.359375 -34.71875 C 20.328125 -35.394531 21.203125 -36.226562 21.984375 -37.21875 C 22.765625 -38.21875 23.410156 -39.28125 23.921875 -40.40625 C 24.429688 -41.539062 24.6875 -42.535156 24.6875 -43.390625 Z M 24.359375 -20.078125 C 24.359375 -20.992188 24.035156 -21.640625 23.390625 -22.015625 C 22.742188 -22.390625 22.019531 -22.578125 21.21875 -22.578125 C 20.457031 -22.578125 19.660156 -22.398438 18.828125 -22.046875 C 17.992188 -21.703125 17.3125 -21.289062 16.78125 -20.8125 C 16.613281 -20.707031 16.488281 -20.4375 16.40625 -20 C 16.332031 -19.570312 16.28125 -19.101562 16.25 -18.59375 C 16.226562 -18.082031 16.203125 -17.597656 16.171875 -17.140625 C 16.140625 -16.679688 16.125 -16.375 16.125 -16.21875 C 16.125 -16.101562 16.125 -15.882812 16.125 -15.5625 C 16.125 -15.238281 16.140625 -14.898438 16.171875 -14.546875 C 16.203125 -14.203125 16.253906 -13.878906 16.328125 -13.578125 C 16.410156 -13.285156 16.503906 -13.140625 16.609375 -13.140625 C 17.367188 -13.140625 18.203125 -13.351562 19.109375 -13.78125 C 20.023438 -14.21875 20.875 -14.757812 21.65625 -15.40625 C 22.4375 -16.050781 23.082031 -16.789062 23.59375 -17.625 C 24.101562 -18.457031 24.359375 -19.273438 24.359375 -20.078125 Z M 24.359375 -20.078125" transform="translate(30.466 74.331)"/></g></g><g><g><path d="M 17.5 -48.875 C 17.5 -45.96875 17.378906 -43.050781 17.140625 -40.125 C 16.898438 -37.195312 16.78125 -34.253906 16.78125 -31.296875 C 16.78125 -27.472656 16.898438 -23.648438 17.140625 -19.828125 C 17.378906 -16.015625 17.5 -12.175781 17.5 -8.3125 C 17.5 -7.34375 17.445312 -6.25 17.34375 -5.03125 C 17.238281 -3.820312 16.984375 -2.707031 16.578125 -1.6875 C 16.171875 -0.664062 15.5625 0.191406 14.75 0.890625 C 13.945312 1.585938 12.875 1.9375 11.53125 1.9375 C 10.238281 1.9375 9.125 1.300781 8.1875 0.03125 C 7.25 -1.226562 6.46875 -2.835938 5.84375 -4.796875 C 5.226562 -6.765625 4.71875 -8.957031 4.3125 -11.375 C 3.90625 -13.789062 3.609375 -16.140625 3.421875 -18.421875 C 3.234375 -20.710938 3.097656 -22.8125 3.015625 -24.71875 C 2.941406 -26.625 2.90625 -28.035156 2.90625 -28.953125 C 2.90625 -29.972656 2.941406 -31.453125 3.015625 -33.390625 C 3.097656 -35.328125 3.273438 -37.425781 3.546875 -39.6875 C 3.816406 -41.945312 4.179688 -44.242188 4.640625 -46.578125 C 5.097656 -48.921875 5.703125 -51.046875 6.453125 -52.953125 C 7.203125 -54.859375 8.101562 -56.414062 9.15625 -57.625 C 10.207031 -58.832031 11.457031 -59.4375 12.90625 -59.4375 C 14.09375 -59.4375 14.992188 -59.046875 15.609375 -58.265625 C 16.222656 -57.492188 16.664062 -56.554688 16.9375 -55.453125 C 17.207031 -54.347656 17.367188 -53.191406 17.421875 -51.984375 C 17.472656 -50.773438 17.5 -49.738281 17.5 -48.875 Z M 17.5 -48.875" transform="translate(69.745 74.331)"/></g></g><g><g><path d="M 37.75 -23.0625 C 37.75 -20.101562 37.453125 -17.171875 36.859375 -14.265625 C 36.265625 -11.367188 35.269531 -8.773438 33.875 -6.484375 C 32.476562 -4.203125 30.609375 -2.363281 28.265625 -0.96875 C 25.929688 0.425781 23.015625 1.125 19.515625 1.125 C 16.078125 1.125 13.203125 0.441406 10.890625 -0.921875 C 8.578125 -2.296875 6.734375 -4.113281 5.359375 -6.375 C 3.992188 -8.632812 3.023438 -11.1875 2.453125 -14.03125 C 1.890625 -16.882812 1.609375 -19.789062 1.609375 -22.75 C 1.609375 -25.96875 1.988281 -29.164062 2.75 -32.34375 C 2.90625 -33.207031 3.210938 -34.40625 3.671875 -35.9375 C 4.128906 -37.46875 4.71875 -38.972656 5.4375 -40.453125 C 6.164062 -41.929688 7 -43.207031 7.9375 -44.28125 C 8.882812 -45.351562 9.921875 -45.890625 11.046875 -45.890625 C 12.117188 -45.890625 12.976562 -45.59375 13.625 -45 C 14.269531 -44.414062 14.78125 -43.675781 15.15625 -42.78125 C 15.539062 -41.894531 15.785156 -40.953125 15.890625 -39.953125 C 15.992188 -38.960938 16.046875 -38.066406 16.046875 -37.265625 C 16.046875 -36.023438 15.953125 -34.8125 15.765625 -33.625 C 15.578125 -32.445312 15.375 -31.265625 15.15625 -30.078125 C 14.945312 -28.472656 14.75 -26.863281 14.5625 -25.25 C 14.375 -23.632812 14.28125 -22.019531 14.28125 -20.40625 C 14.28125 -19.601562 14.316406 -18.703125 14.390625 -17.703125 C 14.472656 -16.710938 14.675781 -15.757812 15 -14.84375 C 15.320312 -13.925781 15.78125 -13.15625 16.375 -12.53125 C 16.96875 -11.914062 17.800781 -11.609375 18.875 -11.609375 C 20.269531 -11.609375 21.382812 -11.984375 22.21875 -12.734375 C 23.050781 -13.492188 23.671875 -14.4375 24.078125 -15.5625 C 24.484375 -16.695312 24.738281 -17.90625 24.84375 -19.1875 C 24.945312 -20.476562 25 -21.664062 25 -22.75 C 25 -25.113281 24.835938 -27.4375 24.515625 -29.71875 C 24.191406 -32.007812 23.894531 -34.335938 23.625 -36.703125 C 23.570312 -36.972656 23.546875 -37.347656 23.546875 -37.828125 C 23.546875 -38.628906 23.679688 -39.429688 23.953125 -40.234375 C 24.222656 -41.046875 24.597656 -41.773438 25.078125 -42.421875 C 25.566406 -43.066406 26.160156 -43.59375 26.859375 -44 C 27.554688 -44.40625 28.335938 -44.609375 29.203125 -44.609375 C 30.378906 -44.609375 31.425781 -44.191406 32.34375 -43.359375 C 33.257812 -42.523438 34.023438 -41.445312 34.640625 -40.125 C 35.253906 -38.8125 35.765625 -37.332031 36.171875 -35.6875 C 36.578125 -34.050781 36.898438 -32.4375 37.140625 -30.84375 C 37.378906 -29.257812 37.539062 -27.769531 37.625 -26.375 C 37.707031 -24.976562 37.75 -23.875 37.75 -23.0625 Z M 37.75 -23.0625" transform="translate(90.957 74.331)"/></g></g><g><g><path d="M 36.21875 -48.234375 C 36.21875 -47.210938 36.125 -46.226562 35.9375 -45.28125 C 35.75 -44.34375 35.410156 -43.523438 34.921875 -42.828125 C 34.441406 -42.128906 33.796875 -41.578125 32.984375 -41.171875 C 32.179688 -40.773438 31.1875 -40.578125 30 -40.578125 C 28.65625 -40.578125 27.660156 -40.84375 27.015625 -41.375 C 26.367188 -41.914062 25.925781 -42.570312 25.6875 -43.34375 C 25.445312 -44.125 25.328125 -44.972656 25.328125 -45.890625 C 25.328125 -46.804688 25.285156 -47.65625 25.203125 -48.4375 C 25.117188 -49.21875 24.914062 -49.875 24.59375 -50.40625 C 24.269531 -50.945312 23.679688 -51.21875 22.828125 -51.21875 C 22.015625 -51.21875 21.351562 -50.597656 20.84375 -49.359375 C 20.332031 -48.117188 19.914062 -46.691406 19.59375 -45.078125 C 19.269531 -43.472656 19.054688 -41.90625 18.953125 -40.375 C 18.847656 -38.84375 18.796875 -37.804688 18.796875 -37.265625 C 19.492188 -37.367188 20.164062 -37.460938 20.8125 -37.546875 C 21.457031 -37.628906 22.15625 -37.671875 22.90625 -37.671875 C 23.65625 -37.671875 24.429688 -37.585938 25.234375 -37.421875 C 26.046875 -37.265625 26.800781 -37.007812 27.5 -36.65625 C 28.195312 -36.3125 28.757812 -35.828125 29.1875 -35.203125 C 29.625 -34.585938 29.84375 -33.820312 29.84375 -32.90625 C 29.84375 -31.9375 29.425781 -31.078125 28.59375 -30.328125 C 27.757812 -29.578125 26.765625 -28.945312 25.609375 -28.4375 C 24.453125 -27.925781 23.28125 -27.507812 22.09375 -27.1875 C 20.914062 -26.863281 19.976562 -26.644531 19.28125 -26.53125 C 19.4375 -22.820312 19.515625 -19.085938 19.515625 -15.328125 C 19.515625 -11.773438 19.4375 -8.28125 19.28125 -4.84375 C 19.164062 -3.175781 18.582031 -1.800781 17.53125 -0.71875 C 16.488281 0.351562 15.132812 0.890625 13.46875 0.890625 C 12.550781 0.890625 11.769531 0.710938 11.125 0.359375 C 10.476562 0.015625 9.941406 -0.453125 9.515625 -1.046875 C 9.085938 -1.640625 8.75 -2.3125 8.5 -3.0625 C 8.257812 -3.8125 8.113281 -4.59375 8.0625 -5.40625 C 7.789062 -8.632812 7.570312 -11.875 7.40625 -15.125 C 7.25 -18.375 7.203125 -21.640625 7.265625 -24.921875 C 6.878906 -24.867188 6.507812 -24.84375 6.15625 -24.84375 C 5.8125 -24.84375 5.453125 -24.84375 5.078125 -24.84375 C 4.429688 -24.84375 3.648438 -24.921875 2.734375 -25.078125 C 1.828125 -25.242188 0.957031 -25.523438 0.125 -25.921875 C -0.707031 -26.328125 -1.421875 -26.828125 -2.015625 -27.421875 C -2.609375 -28.015625 -2.90625 -28.769531 -2.90625 -29.6875 C -2.90625 -30.863281 -2.515625 -31.851562 -1.734375 -32.65625 C -0.953125 -33.46875 -0.0078125 -34.128906 1.09375 -34.640625 C 2.195312 -35.148438 3.351562 -35.507812 4.5625 -35.71875 C 5.769531 -35.9375 6.832031 -36.101562 7.75 -36.21875 L 7.75 -37.5 C 7.75 -40.132812 7.988281 -42.957031 8.46875 -45.96875 C 8.945312 -48.976562 9.804688 -51.773438 11.046875 -54.359375 C 12.285156 -56.941406 13.976562 -59.078125 16.125 -60.765625 C 18.28125 -62.460938 21.023438 -63.3125 24.359375 -63.3125 C 26.453125 -63.3125 28.25 -62.867188 29.75 -61.984375 C 31.257812 -61.097656 32.5 -59.941406 33.46875 -58.515625 C 34.4375 -57.085938 35.132812 -55.472656 35.5625 -53.671875 C 36 -51.867188 36.21875 -50.054688 36.21875 -48.234375 Z M 36.21875 -48.234375" transform="translate(131.203 74.331)"/></g></g><g><g><path d="M 36.21875 -48.234375 C 36.21875 -47.210938 36.125 -46.226562 35.9375 -45.28125 C 35.75 -44.34375 35.410156 -43.523438 34.921875 -42.828125 C 34.441406 -42.128906 33.796875 -41.578125 32.984375 -41.171875 C 32.179688 -40.773438 31.1875 -40.578125 30 -40.578125 C 28.65625 -40.578125 27.660156 -40.84375 27.015625 -41.375 C 26.367188 -41.914062 25.925781 -42.570312 25.6875 -43.34375 C 25.445312 -44.125 25.328125 -44.972656 25.328125 -45.890625 C 25.328125 -46.804688 25.285156 -47.65625 25.203125 -48.4375 C 25.117188 -49.21875 24.914062 -49.875 24.59375 -50.40625 C 24.269531 -50.945312 23.679688 -51.21875 22.828125 -51.21875 C 22.015625 -51.21875 21.351562 -50.597656 20.84375 -49.359375 C 20.332031 -48.117188 19.914062 -46.691406 19.59375 -45.078125 C 19.269531 -43.472656 19.054688 -41.90625 18.953125 -40.375 C 18.847656 -38.84375 18.796875 -37.804688 18.796875 -37.265625 C 19.492188 -37.367188 20.164062 -37.460938 20.8125 -37.546875 C 21.457031 -37.628906 22.15625 -37.671875 22.90625 -37.671875 C 23.65625 -37.671875 24.429688 -37.585938 25.234375 -37.421875 C 26.046875 -37.265625 26.800781 -37.007812 27.5 -36.65625 C 28.195312 -36.3125 28.757812 -35.828125 29.1875 -35.203125 C 29.625 -34.585938 29.84375 -33.820312 29.84375 -32.90625 C 29.84375 -31.9375 29.425781 -31.078125 28.59375 -30.328125 C 27.757812 -29.578125 26.765625 -28.945312 25.609375 -28.4375 C 24.453125 -27.925781 23.28125 -27.507812 22.09375 -27.1875 C 20.914062 -26.863281 19.976562 -26.644531 19.28125 -26.53125 C 19.4375 -22.820312 19.515625 -19.085938 19.515625 -15.328125 C 19.515625 -11.773438 19.4375 -8.28125 19.28125 -4.84375 C 19.164062 -3.175781 18.582031 -1.800781 17.53125 -0.71875 C 16.488281 0.351562 15.132812 0.890625 13.46875 0.890625 C 12.550781 0.890625 11.769531 0.710938 11.125 0.359375 C 10.476562 0.015625 9.941406 -0.453125 9.515625 -1.046875 C 9.085938 -1.640625 8.75 -2.3125 8.5 -3.0625 C 8.257812 -3.8125 8.113281 -4.59375 8.0625 -5.40625 C 7.789062 -8.632812 7.570312 -11.875 7.40625 -15.125 C 7.25 -18.375 7.203125 -21.640625 7.265625 -24.921875 C 6.878906 -24.867188 6.507812 -24.84375 6.15625 -24.84375 C 5.8125 -24.84375 5.453125 -24.84375 5.078125 -24.84375 C 4.429688 -24.84375 3.648438 -24.921875 2.734375 -25.078125 C 1.828125 -25.242188 0.957031 -25.523438 0.125 -25.921875 C -0.707031 -26.328125 -1.421875 -26.828125 -2.015625 -27.421875 C -2.609375 -28.015625 -2.90625 -28.769531 -2.90625 -29.6875 C -2.90625 -30.863281 -2.515625 -31.851562 -1.734375 -32.65625 C -0.953125 -33.46875 -0.0078125 -34.128906 1.09375 -34.640625 C 2.195312 -35.148438 3.351562 -35.507812 4.5625 -35.71875 C 5.769531 -35.9375 6.832031 -36.101562 7.75 -36.21875 L 7.75 -37.5 C 7.75 -40.132812 7.988281 -42.957031 8.46875 -45.96875 C 8.945312 -48.976562 9.804688 -51.773438 11.046875 -54.359375 C 12.285156 -56.941406 13.976562 -59.078125 16.125 -60.765625 C 18.28125 -62.460938 21.023438 -63.3125 24.359375 -63.3125 C 26.453125 -63.3125 28.25 -62.867188 29.75 -61.984375 C 31.257812 -61.097656 32.5 -59.941406 33.46875 -58.515625 C 34.4375 -57.085938 35.132812 -55.472656 35.5625 -53.671875 C 36 -51.867188 36.21875 -50.054688 36.21875 -48.234375 Z M 36.21875 -48.234375" transform="translate(162.013 74.331)"/></g></g><g><g><path d="M 38.078125 -41.0625 C 38.078125 -40.03125 37.953125 -38.953125 37.703125 -37.828125 C 37.460938 -36.703125 37.070312 -35.65625 36.53125 -34.6875 C 36 -33.71875 35.300781 -32.910156 34.4375 -32.265625 C 33.582031 -31.617188 32.535156 -31.296875 31.296875 -31.296875 C 29.410156 -31.296875 28.007812 -31.628906 27.09375 -32.296875 C 26.1875 -32.972656 25.539062 -33.820312 25.15625 -34.84375 C 24.78125 -35.863281 24.578125 -36.953125 24.546875 -38.109375 C 24.523438 -39.265625 24.488281 -40.351562 24.4375 -41.375 C 24.382812 -42.394531 24.207031 -43.238281 23.90625 -43.90625 C 23.613281 -44.582031 22.984375 -44.921875 22.015625 -44.921875 C 20.941406 -44.921875 20 -44.53125 19.1875 -43.75 C 18.382812 -42.976562 17.6875 -41.972656 17.09375 -40.734375 C 16.507812 -39.492188 16.015625 -38.09375 15.609375 -36.53125 C 15.203125 -34.976562 14.878906 -33.429688 14.640625 -31.890625 C 14.398438 -30.359375 14.222656 -28.90625 14.109375 -27.53125 C 14.003906 -26.164062 13.953125 -25.054688 13.953125 -24.203125 C 13.953125 -23.066406 13.992188 -21.71875 14.078125 -20.15625 C 14.160156 -18.601562 14.414062 -17.113281 14.84375 -15.6875 C 15.269531 -14.257812 15.910156 -13.046875 16.765625 -12.046875 C 17.628906 -11.054688 18.867188 -10.5625 20.484375 -10.5625 C 21.554688 -10.5625 22.601562 -10.695312 23.625 -10.96875 C 24.65625 -11.238281 25.679688 -11.546875 26.703125 -11.890625 C 27.722656 -12.242188 28.753906 -12.554688 29.796875 -12.828125 C 30.847656 -13.097656 31.910156 -13.234375 32.984375 -13.234375 C 34.222656 -13.234375 35.242188 -12.734375 36.046875 -11.734375 C 36.859375 -10.742188 37.265625 -9.628906 37.265625 -8.390625 C 37.265625 -6.671875 36.722656 -5.070312 35.640625 -3.59375 C 34.566406 -2.113281 33.238281 -0.8125 31.65625 0.3125 C 30.070312 1.445312 28.351562 2.335938 26.5 2.984375 C 24.644531 3.628906 22.960938 3.953125 21.453125 3.953125 C 17.578125 3.953125 14.296875 3.078125 11.609375 1.328125 C 8.921875 -0.421875 6.742188 -2.675781 5.078125 -5.4375 C 3.410156 -8.207031 2.210938 -11.300781 1.484375 -14.71875 C 0.765625 -18.132812 0.40625 -21.535156 0.40625 -24.921875 C 0.40625 -27.179688 0.617188 -29.65625 1.046875 -32.34375 C 1.472656 -35.03125 2.117188 -37.726562 2.984375 -40.4375 C 3.847656 -43.15625 4.9375 -45.78125 6.25 -48.3125 C 7.570312 -50.84375 9.117188 -53.070312 10.890625 -55 C 12.660156 -56.9375 14.660156 -58.5 16.890625 -59.6875 C 19.128906 -60.875 21.59375 -61.46875 24.28125 -61.46875 C 26.914062 -61.46875 29.117188 -60.804688 30.890625 -59.484375 C 32.660156 -58.171875 34.082031 -56.503906 35.15625 -54.484375 C 36.238281 -52.460938 36.992188 -50.253906 37.421875 -47.859375 C 37.859375 -45.472656 38.078125 -43.207031 38.078125 -41.0625 Z M 38.078125 -41.0625" transform="translate(212.26 74.331)"/></g></g><g><g><path d="M 15.734375 -56.296875 C 15.734375 -55.546875 15.53125 -54.875 15.125 -54.28125 C 14.71875 -53.6875 14.191406 -53.160156 13.546875 -52.703125 C 12.898438 -52.253906 12.203125 -51.90625 11.453125 -51.65625 C 10.703125 -51.414062 10.003906 -51.296875 9.359375 -51.296875 C 8.285156 -51.296875 7.34375 -51.5625 6.53125 -52.09375 C 5.726562 -52.632812 5.328125 -53.472656 5.328125 -54.609375 C 5.328125 -55.410156 5.523438 -56.117188 5.921875 -56.734375 C 6.328125 -57.359375 6.828125 -57.867188 7.421875 -58.265625 C 8.015625 -58.671875 8.6875 -58.984375 9.4375 -59.203125 C 10.1875 -59.421875 10.910156 -59.53125 11.609375 -59.53125 C 12.628906 -59.53125 13.570312 -59.285156 14.4375 -58.796875 C 15.300781 -58.316406 15.734375 -57.484375 15.734375 -56.296875 Z M 16.375 -28.875 C 16.375 -28.125 16.375 -27.332031 16.375 -26.5 C 16.375 -25.664062 16.347656 -24.867188 16.296875 -24.109375 C 16.242188 -23.203125 16.21875 -21.976562 16.21875 -20.4375 C 16.21875 -18.90625 16.160156 -17.253906 16.046875 -15.484375 C 15.941406 -13.710938 15.765625 -11.910156 15.515625 -10.078125 C 15.273438 -8.253906 14.882812 -6.585938 14.34375 -5.078125 C 13.8125 -3.578125 13.101562 -2.351562 12.21875 -1.40625 C 11.332031 -0.46875 10.21875 0.0234375 8.875 0.078125 C 7.851562 0.128906 6.992188 -0.269531 6.296875 -1.125 C 5.597656 -1.988281 5.019531 -3.101562 4.5625 -4.46875 C 4.101562 -5.84375 3.765625 -7.375 3.546875 -9.0625 C 3.328125 -10.757812 3.164062 -12.398438 3.0625 -13.984375 C 2.957031 -15.578125 2.90625 -17.046875 2.90625 -18.390625 C 2.90625 -19.734375 2.90625 -20.726562 2.90625 -21.375 C 2.90625 -22.238281 2.90625 -23.460938 2.90625 -25.046875 C 2.90625 -26.628906 2.957031 -28.332031 3.0625 -30.15625 C 3.164062 -31.988281 3.363281 -33.84375 3.65625 -35.71875 C 3.957031 -37.601562 4.390625 -39.328125 4.953125 -40.890625 C 5.523438 -42.453125 6.265625 -43.71875 7.171875 -44.6875 C 8.085938 -45.65625 9.242188 -46.140625 10.640625 -46.140625 C 12.097656 -46.140625 13.203125 -45.410156 13.953125 -43.953125 C 14.703125 -42.503906 15.265625 -40.8125 15.640625 -38.875 C 16.023438 -36.9375 16.242188 -35.015625 16.296875 -33.109375 C 16.347656 -31.203125 16.375 -29.789062 16.375 -28.875 Z M 16.375 -28.875" transform="translate(251.136 74.331)"/></g></g><g><g><path d="M 21.21875 2.90625 C 17.394531 2.90625 14.421875 2.40625 12.296875 1.40625 C 10.171875 0.414062 8.582031 -0.988281 7.53125 -2.8125 C 6.488281 -4.644531 5.859375 -6.851562 5.640625 -9.4375 C 5.429688 -12.019531 5.328125 -14.894531 5.328125 -18.0625 C 5.328125 -20.59375 5.40625 -23.132812 5.5625 -25.6875 C 5.726562 -28.238281 5.972656 -30.96875 6.296875 -33.875 C 5.535156 -33.875 4.941406 -33.859375 4.515625 -33.828125 C 4.085938 -33.804688 3.738281 -33.796875 3.46875 -33.796875 C 1.75 -33.796875 0.257812 -34.171875 -1 -34.921875 C -2.269531 -35.671875 -2.90625 -36.828125 -2.90625 -38.390625 C -2.90625 -39.359375 -2.539062 -40.21875 -1.8125 -40.96875 C -1.082031 -41.726562 -0.15625 -42.375 0.96875 -42.90625 C 2.09375 -43.445312 3.3125 -43.878906 4.625 -44.203125 C 5.945312 -44.523438 7.203125 -44.738281 8.390625 -44.84375 C 8.390625 -46.351562 8.492188 -48.019531 8.703125 -49.84375 C 8.921875 -51.675781 9.3125 -53.382812 9.875 -54.96875 C 10.445312 -56.550781 11.210938 -57.878906 12.171875 -58.953125 C 13.140625 -60.035156 14.378906 -60.578125 15.890625 -60.578125 C 16.753906 -60.578125 17.519531 -60.320312 18.1875 -59.8125 C 18.863281 -59.300781 19.414062 -58.65625 19.84375 -57.875 C 20.269531 -57.09375 20.585938 -56.21875 20.796875 -55.25 C 21.015625 -54.28125 21.125 -53.335938 21.125 -52.421875 C 21.125 -51.347656 21.046875 -50.242188 20.890625 -49.109375 C 20.734375 -47.984375 20.4375 -46.585938 20 -44.921875 C 20.914062 -45.035156 21.535156 -45.101562 21.859375 -45.125 C 22.179688 -45.15625 22.476562 -45.171875 22.75 -45.171875 C 23.65625 -45.171875 24.601562 -45.085938 25.59375 -44.921875 C 26.59375 -44.765625 27.507812 -44.5 28.34375 -44.125 C 29.175781 -43.75 29.863281 -43.25 30.40625 -42.625 C 30.945312 -42.007812 31.21875 -41.269531 31.21875 -40.40625 C 31.21875 -39.4375 30.828125 -38.578125 30.046875 -37.828125 C 29.265625 -37.078125 28.28125 -36.429688 27.09375 -35.890625 C 25.914062 -35.359375 24.65625 -34.941406 23.3125 -34.640625 C 21.96875 -34.347656 20.703125 -34.144531 19.515625 -34.03125 C 19.191406 -31.832031 18.960938 -29.804688 18.828125 -27.953125 C 18.691406 -26.097656 18.546875 -24.226562 18.390625 -22.34375 C 18.285156 -21.425781 18.191406 -20.492188 18.109375 -19.546875 C 18.023438 -18.609375 17.984375 -17.660156 17.984375 -16.703125 C 17.984375 -15.992188 18.007812 -15.171875 18.0625 -14.234375 C 18.113281 -13.296875 18.300781 -12.394531 18.625 -11.53125 C 18.945312 -10.675781 19.457031 -9.9375 20.15625 -9.3125 C 20.863281 -8.695312 21.832031 -8.390625 23.0625 -8.390625 C 23.820312 -8.390625 24.601562 -8.457031 25.40625 -8.59375 C 26.207031 -8.726562 27.015625 -8.796875 27.828125 -8.796875 C 29.222656 -8.796875 30.226562 -8.3125 30.84375 -7.34375 C 31.46875 -6.375 31.78125 -5.132812 31.78125 -3.625 C 31.78125 -2.5 31.441406 -1.519531 30.765625 -0.6875 C 30.097656 0.144531 29.253906 0.816406 28.234375 1.328125 C 27.210938 1.835938 26.066406 2.226562 24.796875 2.5 C 23.535156 2.769531 22.34375 2.90625 21.21875 2.90625 Z M 21.21875 2.90625" transform="translate(270.816 74.331)"/></g></g><g><g><path d="M 19.921875 23.46875 C 18.628906 23.46875 17.160156 23.265625 15.515625 22.859375 C 13.878906 22.460938 12.335938 21.882812 10.890625 21.125 C 9.441406 20.375 8.21875 19.460938 7.21875 18.390625 C 6.226562 17.316406 5.734375 16.082031 5.734375 14.6875 C 5.734375 14.144531 5.863281 13.601562 6.125 13.0625 C 6.394531 12.53125 6.757812 12.0625 7.21875 11.65625 C 7.675781 11.25 8.171875 10.925781 8.703125 10.6875 C 9.242188 10.445312 9.8125 10.328125 10.40625 10.328125 C 11.050781 10.328125 11.679688 10.421875 12.296875 10.609375 C 12.921875 10.796875 13.554688 11.023438 14.203125 11.296875 C 14.898438 11.566406 15.582031 11.804688 16.25 12.015625 C 16.925781 12.234375 17.640625 12.34375 18.390625 12.34375 C 19.734375 12.34375 20.898438 11.882812 21.890625 10.96875 C 22.890625 10.050781 23.738281 8.851562 24.4375 7.375 C 25.132812 5.894531 25.695312 4.253906 26.125 2.453125 C 26.5625 0.660156 26.898438 -1.117188 27.140625 -2.890625 C 27.378906 -4.671875 27.550781 -6.34375 27.65625 -7.90625 C 27.769531 -9.46875 27.851562 -10.734375 27.90625 -11.703125 C 26.019531 -8.847656 24.148438 -6.65625 22.296875 -5.125 C 20.441406 -3.59375 18.171875 -2.828125 15.484375 -2.828125 C 13.441406 -2.828125 11.65625 -3.253906 10.125 -4.109375 C 8.59375 -4.972656 7.285156 -6.101562 6.203125 -7.5 C 5.128906 -8.894531 4.242188 -10.492188 3.546875 -12.296875 C 2.847656 -14.097656 2.320312 -15.96875 1.96875 -17.90625 C 1.625 -19.84375 1.394531 -21.738281 1.28125 -23.59375 C 1.175781 -25.445312 1.179688 -27.15625 1.296875 -28.71875 C 1.347656 -29.894531 1.492188 -31.4375 1.734375 -33.34375 C 1.972656 -35.257812 2.359375 -37.128906 2.890625 -38.953125 C 3.429688 -40.785156 4.1875 -42.332031 5.15625 -43.59375 C 6.125 -44.851562 7.390625 -45.429688 8.953125 -45.328125 C 9.972656 -45.273438 10.804688 -44.832031 11.453125 -44 C 12.097656 -43.164062 12.617188 -42.128906 13.015625 -40.890625 C 13.421875 -39.648438 13.71875 -38.289062 13.90625 -36.8125 C 14.101562 -35.34375 14.226562 -33.878906 14.28125 -32.421875 C 14.332031 -30.972656 14.34375 -29.640625 14.3125 -28.421875 C 14.289062 -27.210938 14.28125 -26.289062 14.28125 -25.65625 C 14.28125 -24.738281 14.304688 -23.820312 14.359375 -22.90625 C 14.410156 -21.988281 14.597656 -21.164062 14.921875 -20.4375 C 15.242188 -19.71875 15.738281 -19.140625 16.40625 -18.703125 C 17.082031 -18.273438 18.039062 -18.0625 19.28125 -18.0625 C 20.675781 -18.0625 21.789062 -18.410156 22.625 -19.109375 C 23.457031 -19.816406 24.070312 -20.691406 24.46875 -21.734375 C 24.875 -22.785156 25.128906 -23.914062 25.234375 -25.125 C 25.347656 -26.332031 25.40625 -27.472656 25.40625 -28.546875 C 25.40625 -29.304688 25.40625 -30.222656 25.40625 -31.296875 C 25.40625 -32.367188 25.414062 -33.492188 25.4375 -34.671875 C 25.46875 -35.859375 25.578125 -37.03125 25.765625 -38.1875 C 25.953125 -39.34375 26.25 -40.390625 26.65625 -41.328125 C 27.0625 -42.273438 27.597656 -43.039062 28.265625 -43.625 C 28.941406 -44.21875 29.816406 -44.515625 30.890625 -44.515625 C 32.234375 -44.515625 33.390625 -43.988281 34.359375 -42.9375 C 35.328125 -41.894531 36.144531 -40.523438 36.8125 -38.828125 C 37.488281 -37.140625 38.023438 -35.273438 38.421875 -33.234375 C 38.828125 -31.191406 39.140625 -29.160156 39.359375 -27.140625 C 39.578125 -25.117188 39.722656 -23.257812 39.796875 -21.5625 C 39.878906 -19.875 39.921875 -18.546875 39.921875 -17.578125 C 39.921875 -15.328125 39.835938 -12.757812 39.671875 -9.875 C 39.515625 -7 39.207031 -4.039062 38.75 -1 C 38.300781 2.03125 37.617188 5.007812 36.703125 7.9375 C 35.785156 10.875 34.585938 13.5 33.109375 15.8125 C 31.628906 18.125 29.8125 19.976562 27.65625 21.375 C 25.507812 22.769531 22.929688 23.46875 19.921875 23.46875 Z M 19.921875 23.46875" transform="translate(301.787 74.331)"/></g></g></g><path d="M 269.304688 24.78125 C 266.691406 27.53125 263.476562 23.1875 261.535156 23.1875 C 259.589844 23.1875 256.46875 27.609375 253.765625 24.78125 C 251.210938 22.105469 254.074219 12.0625 261.535156 12.0625 C 269.230469 12.0625 271.851562 22.097656 269.304688 24.78125 Z M 269.304688 24.78125"/><path d="M 260.011719 3.992188 C 260.4375 6.316406 259.59375 8.445312 258.132812 8.746094 C 256.671875 9.046875 255.140625 7.40625 254.71875 5.085938 C 254.296875 2.761719 255.140625 0.632812 256.601562 0.332031 C 258.0625 0.03125 259.589844 1.667969 260.011719 3.992188 Z M 260.011719 3.992188"/><path d="M 252.671875 9.160156 C 253.753906 10.746094 253.761719 12.699219 252.699219 13.519531 C 251.632812 14.339844 249.894531 13.722656 248.816406 12.136719 C 247.738281 10.550781 247.726562 8.597656 248.792969 7.777344 C 249.855469 6.957031 251.59375 7.574219 252.671875 9.160156 Z M 252.671875 9.160156"/><path d="M 263.050781 3.992188 C 262.628906 6.316406 263.472656 8.445312 264.933594 8.746094 C 266.394531 9.046875 267.921875 7.40625 268.347656 5.085938 C 268.769531 2.761719 267.925781 0.632812 266.464844 0.332031 C 265.003906 0.03125 263.476562 1.667969 263.050781 3.992188 Z M 263.050781 3.992188"/><g clip-path="url(#a)"><path d="M 270.394531 9.160156 C 269.3125 10.746094 269.300781 12.699219 270.367188 13.519531 C 271.433594 14.339844 273.171875 13.722656 274.25 12.136719 C 275.328125 10.550781 275.339844 8.597656 274.273438 7.777344 C 273.210938 6.957031 271.472656 7.574219 270.394531 9.160156 Z M 270.394531 9.160156"/></g><g><g><g><path d="M 2.582031 0 C 2.8125 0 2.929688 -0.117188 2.929688 -0.347656 L 2.929688 -4.066406 L 5.175781 -4.066406 C 8.511719 -4.066406 10.164062 -5.589844 10.164062 -8.554688 C 10.164062 -11.445312 8.589844 -13.011719 5.066406 -13.011719 L 1.636719 -13.011719 C 1.40625 -13.011719 1.289062 -12.894531 1.289062 -12.664062 L 1.289062 -0.347656 C 1.289062 -0.117188 1.40625 0 1.636719 0 Z M 2.929688 -11.460938 L 4.964844 -11.460938 C 6.046875 -11.460938 8.546875 -11.4375 8.546875 -8.546875 C 8.546875 -5.640625 6.015625 -5.617188 4.964844 -5.617188 L 2.929688 -5.617188 Z M 2.929688 -11.460938" transform="translate(101.865 106.526)"/></g></g></g><g><g><g><path d="M 7.929688 0 C 8.148438 0 8.277344 -0.117188 8.277344 -0.347656 L 8.277344 -1.203125 C 8.277344 -1.421875 8.148438 -1.550781 7.929688 -1.550781 L 2.949219 -1.550781 L 2.949219 -4.160156 L 7.25 -4.160156 C 7.472656 -4.160156 7.597656 -4.277344 7.597656 -4.507812 L 7.597656 -5.328125 C 7.597656 -5.558594 7.472656 -5.675781 7.25 -5.675781 L 2.949219 -5.675781 L 2.949219 -11.460938 L 7.929688 -11.460938 C 8.148438 -11.460938 8.277344 -11.589844 8.277344 -11.808594 L 8.277344 -12.664062 C 8.277344 -12.894531 8.148438 -13.011719 7.929688 -13.011719 L 1.636719 -13.011719 C 1.40625 -13.011719 1.289062 -12.894531 1.289062 -12.664062 L 1.289062 -0.347656 C 1.289062 -0.117188 1.40625 0 1.636719 0 Z M 7.929688 0" transform="translate(117.928 106.526)"/></g></g></g><g><g><g><path d="M 4.820312 0 C 5.046875 0 5.167969 -0.117188 5.167969 -0.347656 L 5.167969 -11.460938 L 8.113281 -11.460938 C 8.34375 -11.460938 8.460938 -11.589844 8.460938 -11.808594 L 8.460938 -12.664062 C 8.460938 -12.894531 8.34375 -13.011719 8.113281 -13.011719 L 0.550781 -13.011719 C 0.320312 -13.011719 0.203125 -12.894531 0.203125 -12.664062 L 0.203125 -11.808594 C 0.203125 -11.589844 0.320312 -11.460938 0.550781 -11.460938 L 3.5 -11.460938 L 3.5 -0.347656 C 3.5 -0.117188 3.625 0 3.847656 0 Z M 4.820312 0" transform="translate(132.154 106.526)"/></g></g></g><g><g><g><path d="M 2.601562 0 C 2.820312 0 2.949219 -0.117188 2.949219 -0.347656 L 2.949219 -4.140625 L 9.300781 -4.140625 L 9.300781 -0.347656 C 9.300781 -0.117188 9.417969 0 9.648438 0 L 10.613281 0 C 10.84375 0 10.960938 -0.117188 10.960938 -0.347656 L 10.960938 -12.664062 C 10.960938 -12.894531 10.84375 -13.011719 10.613281 -13.011719 L 9.648438 -13.011719 C 9.417969 -13.011719 9.300781 -12.894531 9.300781 -12.664062 L 9.300781 -5.691406 L 2.949219 -5.691406 L 2.949219 -12.664062 C 2.949219 -12.894531 2.820312 -13.011719 2.601562 -13.011719 L 1.636719 -13.011719 C 1.40625 -13.011719 1.289062 -12.894531 1.289062 -12.664062 L 1.289062 -0.347656 C 1.289062 -0.117188 1.40625 0 1.636719 0 Z M 2.601562 0" transform="translate(156.347 106.526)"/></g></g></g><g><g><g><path d="M 7.503906 0.269531 C 11.273438 0.269531 14.28125 -2.515625 14.28125 -6.503906 C 14.28125 -10.488281 11.273438 -13.28125 7.503906 -13.28125 C 3.734375 -13.28125 0.738281 -10.488281 0.738281 -6.503906 C 0.738281 -2.515625 3.734375 0.269531 7.503906 0.269531 Z M 7.503906 -1.328125 C 4.683594 -1.328125 2.398438 -3.449219 2.398438 -6.503906 C 2.398438 -9.582031 4.675781 -11.679688 7.503906 -11.679688 C 10.324219 -11.679688 12.613281 -9.582031 12.613281 -6.503906 C 12.613281 -3.429688 10.324219 -1.328125 7.503906 -1.328125 Z M 7.503906 -1.328125" transform="translate(173.868 106.526)"/></g></g></g><g><g><g><path d="M 4.929688 0.269531 C 7.089844 0.269531 8.902344 -0.863281 8.902344 -3.132812 C 8.902344 -5.328125 7.003906 -6.328125 5.304688 -7.269531 C 3.863281 -8.054688 2.582031 -8.765625 2.582031 -10.132812 C 2.582031 -11.285156 3.566406 -11.75 4.710938 -11.75 C 5.566406 -11.75 6.539062 -11.496094 7.472656 -11.0625 C 7.683594 -10.960938 7.835938 -11.039062 7.9375 -11.222656 L 8.277344 -12.046875 C 8.371094 -12.242188 8.320312 -12.410156 8.105469 -12.511719 C 6.953125 -13.003906 5.75 -13.28125 4.71875 -13.28125 C 2.695312 -13.28125 0.914062 -12.28125 0.914062 -10.011719 C 0.914062 -7.902344 2.53125 -6.921875 4.160156 -6.007812 C 5.820312 -5.082031 7.234375 -4.378906 7.234375 -3.042969 C 7.234375 -1.890625 6.300781 -1.226562 4.820312 -1.226562 C 3.972656 -1.226562 2.9375 -1.414062 1.585938 -2.144531 C 1.371094 -2.253906 1.203125 -2.203125 1.101562 -2.007812 L 0.738281 -1.175781 C 0.636719 -0.984375 0.675781 -0.8125 0.890625 -0.703125 C 2.515625 0.0507812 3.710938 0.269531 4.929688 0.269531 Z M 4.929688 0.269531" transform="translate(194.165 106.526)"/></g></g></g><g><g><g><path d="M 2.582031 0 C 2.8125 0 2.929688 -0.117188 2.929688 -0.347656 L 2.929688 -4.066406 L 5.175781 -4.066406 C 8.511719 -4.066406 10.164062 -5.589844 10.164062 -8.554688 C 10.164062 -11.445312 8.589844 -13.011719 5.066406 -13.011719 L 1.636719 -13.011719 C 1.40625 -13.011719 1.289062 -12.894531 1.289062 -12.664062 L 1.289062 -0.347656 C 1.289062 -0.117188 1.40625 0 1.636719 0 Z M 2.929688 -11.460938 L 4.964844 -11.460938 C 6.046875 -11.460938 8.546875 -11.4375 8.546875 -8.546875 C 8.546875 -5.640625 6.015625 -5.617188 4.964844 -5.617188 L 2.929688 -5.617188 Z M 2.929688 -11.460938" transform="translate(209.01 106.526)"/></g></g></g><g><g><g><path d="M 2.601562 0 C 2.820312 0 2.949219 -0.117188 2.949219 -0.347656 L 2.949219 -12.664062 C 2.949219 -12.894531 2.820312 -13.011719 2.601562 -13.011719 L 1.636719 -13.011719 C 1.40625 -13.011719 1.289062 -12.894531 1.289062 -12.664062 L 1.289062 -0.347656 C 1.289062 -0.117188 1.40625 0 1.636719 0 Z M 2.601562 0" transform="translate(225.073 106.526)"/></g></g></g><g><g><g><path d="M 4.820312 0 C 5.046875 0 5.167969 -0.117188 5.167969 -0.347656 L 5.167969 -11.460938 L 8.113281 -11.460938 C 8.34375 -11.460938 8.460938 -11.589844 8.460938 -11.808594 L 8.460938 -12.664062 C 8.460938 -12.894531 8.34375 -13.011719 8.113281 -13.011719 L 0.550781 -13.011719 C 0.320312 -13.011719 0.203125 -12.894531 0.203125 -12.664062 L 0.203125 -11.808594 C 0.203125 -11.589844 0.320312 -11.460938 0.550781 -11.460938 L 3.5 -11.460938 L 3.5 -0.347656 C 3.5 -0.117188 3.625 0 3.847656 0 Z M 4.820312 0" transform="translate(234.574 106.526)"/></g></g></g><g><g><g><path d="M 6.3125 -13.011719 C 6.148438 -13.390625 5.820312 -13.390625 5.667969 -13.011719 L 0.289062 -0.398438 C 0.1875 -0.160156 0.289062 0 0.550781 0 L 1.617188 0 C 1.8125 0 1.949219 -0.078125 2.023438 -0.261719 L 2.972656 -2.582031 L 9.003906 -2.582031 L 9.953125 -0.261719 C 10.019531 -0.078125 10.164062 0 10.351562 0 L 11.425781 0 C 11.691406 0 11.792969 -0.160156 11.691406 -0.398438 Z M 5.988281 -9.953125 L 8.410156 -4.03125 L 3.566406 -4.03125 Z M 5.988281 -9.953125" transform="translate(248.52 106.526)"/></g></g></g><g><g><g><path d="M 6.792969 0 C 7.023438 0 7.140625 -0.117188 7.140625 -0.347656 L 7.140625 -1.203125 C 7.140625 -1.421875 7.023438 -1.550781 6.792969 -1.550781 L 2.949219 -1.550781 L 2.949219 -12.664062 C 2.949219 -12.894531 2.820312 -13.011719 2.601562 -13.011719 L 1.636719 -13.011719 C 1.40625 -13.011719 1.289062 -12.894531 1.289062 -12.664062 L 1.289062 -0.347656 C 1.289062 -0.117188 1.40625 0 1.636719 0 Z M 6.792969 0" transform="translate(265.77 106.526)"/></g></g></g></svg>